<svg xmlns="http://www.w3.org/2000/svg" width="15.312" height="16.98" viewBox="6.312 4.375 15.312 16.98" enable-background="new 6.312 4.375 15.312 16.98"><g fill="#1B9B19"><path d="M7.669 15.195c-2.809 4.002.747 6.16.747 6.16.536-1.408 3.177-1.795 3.177-1.795 3.01-.4 3.086-4.814 3.086-4.814l-2.327-1.825c-2.68-.338-4.683 2.274-4.683 2.274zm4.813-1.302c.005.223-.171.406-.393.41-2.757.063-3.725 2.992-3.766 3.119-.064.201-.277.318-.481.266l-.022-.004c-.21-.07-.328-.295-.261-.508.046-.146 1.174-3.6 4.513-3.676.223-.001.405.172.41.393zM20.766 6.241l-1.744-1.333c-.535-.41-1.286-.328-1.73.162l-.013-.01-3.38 4.313c-.457.583-.884 2.142-.902 2.208l-.041.154 2.575 2.017.136-.068c.06-.029 1.493-.767 1.972-1.378l3.193-4.074.174-.186c.432-.566.324-1.373-.24-1.805z"/></g></svg>