<svg xmlns="http://www.w3.org/2000/svg" width="15.312" height="14.938"><path fill="#1B9B19" d="M13.055 5.798l-.228-.57c.858-1.862.812-1.917.645-2.078l-1.09-1.05-.102-.11h-.127c-.067 0-.267.022-1.932.747l-.613-.325c-.793-1.886-.874-1.974-1.106-1.974h-1.546c-.232 0-.322.099-1.057 1.992l-.61.288c-1.125-.457-1.785-.664-1.964-.664l-.146.017-1.178 1.116c-.179.161-.242.221.665 2.054l-.205.57c-2.006.745-1.961.819-1.961 1.047v1.455c0 .228-.045.309 1.968 1.001l.227.567c-.858 1.861-.811 1.916-.644 2.076l1.09 1.051.103.111h.128c.066 0 .263-.021 1.931-.748l.612.327c.792 1.886.874 1.974 1.106 1.974h1.546c.237 0 .32-.099 1.057-1.991l.614-.288c1.124.457 1.783.663 1.96.663l.147-.016 1.188-1.123c.169-.164.228-.223-.674-2.048l.203-.57c2.009-.746 1.964-.826 1.964-1.048v-1.454c0-.229.045-.309-1.971-.999zm-5.292 4.178c-1.417 0-2.572-1.087-2.572-2.422 0-1.334 1.154-2.42 2.572-2.42 1.417 0 2.568 1.086 2.568 2.42 0 1.335-1.152 2.422-2.568 2.422z"/></svg>